<svg xmlns="http://www.w3.org/2000/svg" viewBox="0 0 288 512"><!--!Font Awesome Free 6.7.1 by @fontawesome - https://fontawesome.com License - https://fontawesome.com/license/free Copyright 2024 Fonticons, Inc.--><path d="M112 316.9v156.7l22 33c4.8 7.1 15.2 7.1 20 0L176 473.6V316.9c-10.4 1.9-21.1 3.1-32 3.1s-21.6-1.1-32-3.1zM144 0C64.5 0 0 64.5 0 144s64.5 144 144 144 144-64.5 144-144S223.5 0 144 0zm0 76c-37.5 0-68 30.5-68 68 0 6.6-5.4 12-12 12s-12-5.4-12-12c0-50.7 41.3-92 92-92 6.6 0 12 5.4 12 12s-5.4 12-12 12z"/></svg>